<?xml version="1.0" encoding="utf-8"?>
<!-- Generator: Adobe Illustrator 22.1.0, SVG Export Plug-In . SVG Version: 6.00 Build 0)  -->
<svg version="1.1" id="Layer_1" xmlns="http://www.w3.org/2000/svg" xmlns:xlink="http://www.w3.org/1999/xlink" x="0px" y="0px"
	 viewBox="0 0 300 300" style="enable-background:new 0 0 300 300;" xml:space="preserve">
<style type="text/css">
	.st0{fill:none;stroke:#000000;stroke-miterlimit:10;}
	.st1{fill:none;stroke:#8CC63F;stroke-miterlimit:10;}
	.st2{fill:#FF2915;stroke:#000000;stroke-miterlimit:10;}
</style>
<path class="st0" d="M165.3,106.3H155c0.1-0.7,0.1-1.5,0.1-2.3c0-11.8-9.2-21.3-20.5-21.3c-11.3,0-20.5,9.5-20.5,21.3
	c0,0.8,0,1.5,0.1,2.3h-10.3c0-17,13.7-30.7,30.7-30.7S164.7,89.4,165.3,106.3z"/>
<path class="st0" d="M164.6,106.1"/>
<path class="st0" d="M133.9,169.5"/>
<path class="st0" d="M155,106.3c-0.4,4.1-1.8,7.8-4,10.7c-3.5,4.7-8.9,7.7-15.3,8.5c-10.8,1.3-20.3-8.2-21.5-19.2H104l30.5,63.2
	l30.6-63.2H155z M157.5,114.3L157.5,114.3L157.5,114.3c-0.5,0-0.9-0.5-0.9-1.1c0-0.6,0.4-1.1,0.9-1.1c0.5,0,0.9,0.5,0.9,1.1
	C158.4,113.8,158,114.3,157.5,114.3z"/>
<line class="st0" x1="133.9" y1="169.5" x2="133.8" y2="169.3"/>
<line class="st0" x1="133.8" y1="169.3" x2="133.7" y2="169.5"/>
<path class="st0" d="M33.5,93"/>
<path class="st0" d="M58.1,112.8"/>
<path class="st0" d="M33.5,93"/>
<path class="st0" d="M50.5,80.6"/>
<path class="st0" d="M50.6,87.1"/>
<path class="st0" d="M60.4,86.4"/>
<path class="st1" d="M155.1,104c0,0.8,0,1.5-0.1,2.3c-0.4,4.1-1.8,7.8-4,10.7c-3.5,4.7-8.9,7.7-15.3,8.5
	c-10.8,1.3-20.3-8.2-21.5-19.2c-0.1-0.8-0.1-1.5-0.1-2.3c0-11.8,9.2-21.3,20.5-21.3C145.9,82.7,155.1,92.3,155.1,104z"/>
<path class="st2" d="M148.3,94.9c0,7.6-9.4,8-13.9,16.7c-3.6-7.2-13.8-9.1-13.8-16.7s13.1-13.6,13.9-1.7
	C136.3,81.4,148.3,87.3,148.3,94.9z"/>
<path class="st0" d="M134.2,109.5c0,5.3,4.2,9.6,9.4,9.6"/>
<path class="st0" d="M143.6,119c0-6.5,2.9-11.8,6.6-11.8"/>
<path class="st0" d="M156.8,112.9c0.1,0.4,0.1,0.8-0.1,1.2"/>
<path class="st0" d="M157.5,114.3c-0.5,1.9-3.5,2.4-6.5,2.7c-3.6,0.3-7.4,0.3-7.4,2"/>
<ellipse class="st0" cx="151.1" cy="107.3" rx="1" ry="1.1"/>
<path class="st0" d="M158.4,113.2c0,0.6-0.4,1.1-0.9,1.1h-0.1v0c-0.5,0-0.9-0.5-0.9-1.1c0-0.6,0.4-1.1,0.9-1.1
	C158,112.2,158.4,112.6,158.4,113.2z"/>
<line class="st0" x1="134.2" y1="109.5" x2="134.2" y2="101.9"/>
<ellipse class="st0" cx="134.2" cy="102.1" rx="1.5" ry="1.8"/>
<path class="st0" d="M134.2,101.9c0,0.5-0.3-0.3-0.8-0.3s-0.8,0.8-0.8,0.3c0-0.5,0.3-0.9,0.8-0.9S134.2,101.4,134.2,101.9z"/>
</svg>
